<svg id="Component_3_80" data-name="Component 3 – 80" xmlns="http://www.w3.org/2000/svg" width="30" height="28.8" viewBox="0 0 30 28.8">
  <g id="Rectangle_13" data-name="Rectangle 13" fill="#fff" stroke="#e0e7ff" stroke-width="1" opacity="0.3">
    <rect width="30" height="28.8" rx="4" stroke="none"/>
    <rect x="0.5" y="0.5" width="29" height="27.8" rx="3.5" fill="none"/>
  </g>
  <g id="delete-bin-6-line" transform="translate(7.931 8.319)">
    <path id="Path_22970" data-name="Path 22970" d="M0,0H14.137V14.137H0Z" fill="none"/>
    <path id="Path_22971" data-name="Path 22971" d="M4.945,3.178V2h5.891V3.178h2.945V4.356H12.6v8.836a.589.589,0,0,1-.589.589H3.767a.589.589,0,0,1-.589-.589V4.356H2V3.178ZM4.356,4.356V12.6h7.069V4.356ZM6.123,6.123H7.3v4.712H6.123Zm2.356,0H9.658v4.712H8.48Z" transform="translate(-0.822 -0.822)" fill="#e1432a" stroke="#fff" stroke-width="0.3"/>
  </g>
</svg>
