<svg xmlns="http://www.w3.org/2000/svg" xmlns:xlink="http://www.w3.org/1999/xlink" width="57.152" height="57.152" viewBox="0 0 57.152 57.152">
  <defs>
    <clipPath id="clip-path">
      <rect id="Rectangle_864" data-name="Rectangle 864" width="57.152" height="57.152" transform="translate(0)" fill="none" stroke="#03354c" stroke-width="1"/>
    </clipPath>
  </defs>
  <g id="Group_6652" data-name="Group 6652" transform="translate(0)" clip-path="url(#clip-path)">
    <g id="Group_6651" data-name="Group 6651" transform="translate(18.89 9.526)">
      <path id="Path_23029" data-name="Path 23029" d="M19.373,22.383V7.839a.781.781,0,0,0-1.3-.5l-8.389,7.14L1.3,7.344a.782.782,0,0,0-1.3.5V22.054c0,.032.012.576.005.67.186,4.2,4.443,7.568,9.684,7.568s9.5-3.366,9.672-7.568C19.361,22.724,19.373,22.409,19.373,22.383Z" transform="translate(0 7.809)" fill="none" stroke="#f3759b" stroke-width="1.2"/>
      <path id="Path_23030" data-name="Path 23030" d="M14.543,6.456a6.377,6.377,0,0,1-6.293,6.456,6.377,6.377,0,0,1-6.3-6.456A6.377,6.377,0,0,1,8.249,0a6.377,6.377,0,0,1,6.293,6.456" transform="translate(1.435 0)" fill="none" stroke="#f3759b" stroke-width="1.2"/>
    </g>
  </g>
</svg>
