<svg id="calendar-line_1_" data-name="calendar-line (1)" xmlns="http://www.w3.org/2000/svg" width="15" height="15" viewBox="0 0 15 15">
  <path id="Path_23143" data-name="Path 23143" d="M0,0H15V15H0Z" fill="none"/>
  <path id="Path_23144" data-name="Path 23144" d="M10.25,2.1h2.2a.55.55,0,0,1,.55.55v8.8a.55.55,0,0,1-.55.55H2.55A.55.55,0,0,1,2,11.45V2.65a.55.55,0,0,1,.55-.55h2.2V1h1.1V2.1h3.3V1h1.1ZM9.15,3.2H5.85V4.3H4.75V3.2H3.1V5.4h8.8V3.2H10.25V4.3H9.15ZM11.9,6.5H3.1v4.4h8.8Z" fill="#3f8fc6"/>
</svg>
