<svg id="folder-open-line" xmlns="http://www.w3.org/2000/svg" width="15" height="15" viewBox="0 0 15 15">
  <path id="Path_23139" data-name="Path 23139" d="M0,0H15V15H0Z" fill="none"/>
  <path id="Path_23140" data-name="Path 23140" d="M2.628,14.354A.629.629,0,0,1,2,13.724V3.631A.629.629,0,0,1,2.628,3H7.284L8.54,4.262H13.3a.629.629,0,0,1,.628.631V6.785H12.676V5.523H8.02L6.764,4.262H3.256V11.83L4.2,8.046H14.873l-1.451,5.831a.629.629,0,0,1-.609.478ZM13.265,9.308H5.179l-.942,3.785h8.086Z" transform="translate(-0.785 -1.177)" fill="#0dcc7e"/>
</svg>
