<svg id="image-line" xmlns="http://www.w3.org/2000/svg" width="15" height="15" viewBox="0 0 15 15">
  <path id="Path_23177" data-name="Path 23177" d="M0,0H15V15H0Z" fill="none"/>
  <path id="Path_23178" data-name="Path 23178" d="M3.751,14.072l-.012.012-.013-.012H2.614A.613.613,0,0,1,2,13.461V3.611A.617.617,0,0,1,2.614,3H13.767a.613.613,0,0,1,.614.611v9.85a.617.617,0,0,1-.614.611Zm9.392-3.691V4.23h-9.9v8.611l6.19-6.151Zm0,1.739L9.428,8.43l-4.44,4.411h8.154Zm-7.428-4.2a1.23,1.23,0,1,1,1.238-1.23A1.234,1.234,0,0,1,5.714,7.921Z" transform="translate(-0.69 -1.042)" fill="#e3710e"/>
</svg>
