<svg id="mail-send-line" xmlns="http://www.w3.org/2000/svg" width="16.8" height="16.8" viewBox="0 0 16.8 16.8">
  <path id="Path_23271" data-name="Path 23271" d="M0,0H16.8V16.8H0Z" fill="none"/>
  <path id="Path_23272" data-name="Path 23272" d="M12.971,13.028a.59.59,0,0,1-.585.585H1.764a.585.585,0,0,1-.585-.585v-.594H11.792v-6.9L7.075,9.781l-5.9-5.307V3.59A.59.59,0,0,1,1.769,3H12.382a.59.59,0,0,1,.59.59ZM2.614,4.179,7.075,8.194l4.461-4.015ZM0,10.075H4.717v1.179H0ZM0,7.127H2.948V8.307H0Z" transform="translate(1.914 0.094)" fill="#e30e71"/>
</svg>
