<svg xmlns="http://www.w3.org/2000/svg" width="13.992" height="11.553" viewBox="0 0 13.992 11.553">
  <g id="Layer_x0020_1" transform="translate(0.1 0.1)">
    <path id="Path_459" data-name="Path 459" d="M10.881,84.206h2.014a2.519,2.519,0,0,1,2.487-2.166h.467a2.519,2.519,0,0,1,2.487,2.166h2.014a2.166,2.166,0,0,1,2.161,2.161v4.865a2.166,2.166,0,0,1-2.161,2.161h-9.47A2.166,2.166,0,0,1,8.72,91.232V86.367A2.166,2.166,0,0,1,10.881,84.206Zm1.649,5.838L11.6,91.371a.344.344,0,0,1-.563-.4l.934-1.328a1.8,1.8,0,1,1,.563.4Zm.738-2.764A1.116,1.116,0,1,0,14.384,88.4a1.116,1.116,0,0,0-1.116-1.116ZM16.3,91.706a.345.345,0,0,1,0-.69h3.194a.345.345,0,0,1,0,.69Zm0-2.032a.345.345,0,0,1,0-.69h3.194a.345.345,0,0,1,0,.69Zm0,1.016a.345.345,0,0,1,0-.69h3.194a.345.345,0,0,1,0,.69Zm0-2.032a.345.345,0,0,1,0-.69h3.194a.345.345,0,0,1,0,.69Zm0-1.913a.345.345,0,0,1,0-.69h2.562a.345.345,0,0,1,0,.69Zm-2.7-2.538h4.044a1.83,1.83,0,0,0-1.788-1.476h-.467A1.83,1.83,0,0,0,13.594,84.206Zm6.757.69h-9.47A1.477,1.477,0,0,0,9.41,86.367v4.865A1.477,1.477,0,0,0,10.881,92.7h9.47a1.477,1.477,0,0,0,1.471-1.471V86.367A1.477,1.477,0,0,0,20.351,84.9Z" transform="translate(-8.72 -82.04)" fill="#3f8fc6" stroke="#fff" stroke-width="0.2"/>
  </g>
</svg>
