<svg xmlns="http://www.w3.org/2000/svg" xmlns:xlink="http://www.w3.org/1999/xlink" width="154.393" height="52.882" viewBox="0 0 154.393 52.882">
  <defs>
    <clipPath id="clip-path">
      <path id="Path_22951" data-name="Path 22951" d="M.311,40.938c0,.04.1.333.141.584l.5,1.45c1.51,4.672,6.635,8.95,13.186,8.962H14.2a14.375,14.375,0,0,0,4.887-.852c8.883-3.409,10.332-12.431,8.544-16.813C24.708,26.525,4.4,13.361.1,7.366c1.5,10.955-.7,27.249.11,33.028" transform="translate(-0.027 -7.366)" fill="#e64ddf"/>
    </clipPath>
    <clipPath id="clip-path-2">
      <path id="Path_22956" data-name="Path 22956" d="M.279,38.2c0,.037.088.306.125.536L.85,40.072A12.309,12.309,0,0,0,12.524,48.3h.049a12.316,12.316,0,0,0,4.327-.783c7.865-3.132,9.148-11.419,7.565-15.444C21.88,24.965,3.9,12.872.092,7.366,1.421,17.429-.524,32.4.19,37.7" transform="translate(-0.027 -7.366)" fill="#63abe2"/>
    </clipPath>
  </defs>
  <g id="Group_6671" data-name="Group 6671" transform="translate(-56.607 -27.054)">
    <g id="Group_6182" data-name="Group 6182" transform="translate(-199 -10.946)">
      <text id="Proposal_portal" data-name="Proposal 
portal" transform="translate(300 62)" fill="#2e384d" font-size="18" font-family="Gotham-Bold, Gotham" font-weight="700"><tspan x="0" y="0">PROPOSAL </tspan><tspan font-family="Gotham-Book, Gotham" font-weight="400"><tspan x="0" y="19">PORTAL</tspan></tspan></text>
    </g>
    <g id="Group_6206" data-name="Group 6206" transform="translate(0 -18.737)">
      <g id="Group_6203" data-name="Group 6203" transform="translate(-7.393 -14.808)">
        <g id="Group_6180" data-name="Group 6180" transform="translate(64.043 68.912)" clip-path="url(#clip-path)">
          <path id="Path_22950" data-name="Path 22950" d="M46.938,26.153l-22.4,52.031L-9.583,43.7l22.4-52.031Z" transform="translate(-4.179 -12.641)" fill="#e64ddf"/>
        </g>
        <g id="Group_6205" data-name="Group 6205" transform="translate(64.697 72.542)" clip-path="url(#clip-path-2)">
          <path id="Path_22955" data-name="Path 22955" d="M40.461,23.344,20.63,71.137-9.583,39.459,10.249-8.334Z" transform="translate(-2.602 -10.932)" fill="#3d0a46" opacity="0.47"/>
        </g>
        <g id="Group_6202" data-name="Group 6202" transform="translate(64 54.188)">
          <path id="Path_22949" data-name="Path 22949" d="M11.309,0A6.607,6.607,0,1,1,4.7,6.607,6.607,6.607,0,0,1,11.309,0" transform="translate(2.848 6.411)" fill="#472e96"/>
          <path id="Path_22952" data-name="Path 22952" d="M29.071,40.981c.405-6.533-1.56-22.662-.06-33.616-4.295,6-24.607,19.16-27.529,26.9-1.787,4.381-.338,13.4,8.544,16.812,8.126,2.951,17.3-2.239,18.756-8.123l.2-1.226a7.336,7.336,0,0,0,.089-.749" transform="translate(-0.812 7.36)" fill="#419ad5"/>
          <path id="Path_22954" data-name="Path 22954" d="M26.77,37.285c.372-5.814-1.433-20.17-.055-29.92C22.77,12.7,4.111,24.418,1.427,31.31c-1.641,3.9-.31,11.93,7.848,14.963C16.739,48.9,25.163,44.28,26.5,39.043l.184-1.092a6.335,6.335,0,0,0,.082-.667" transform="translate(0.863 12.261)" fill="rgba(46,56,77,0.47)" opacity="0.23"/>
        </g>
      </g>
      <path id="Path_22957" data-name="Path 22957" d="M1853.929-196.662c-.882-.782,4.408-.293,3.286,5.085-.882,3.618-4.568,4.2-4.729,3.227C1854.57-190.5,1856.173-192.555,1853.929-196.662Z" transform="translate(-1780 245.188)" fill="#fff" opacity="0.05"/>
    </g>
  </g>
</svg>
