<svg id="user-settings-line" xmlns="http://www.w3.org/2000/svg" width="17" height="17" viewBox="0 0 17 17">
  <path id="Path_22962" data-name="Path 22962" d="M0,0H17V17H0Z" fill="none"/>
  <path id="Path_22963" data-name="Path 22963" d="M9.467,10.246v1.422a4.186,4.186,0,0,0-4.1,4.267H4a5.582,5.582,0,0,1,5.467-5.69Zm0-.711a4.185,4.185,0,0,1-4.1-4.267A4.185,4.185,0,0,1,9.467,1a4.185,4.185,0,0,1,4.1,4.267A4.185,4.185,0,0,1,9.467,9.535Zm0-1.422A2.79,2.79,0,0,0,12.2,5.267,2.79,2.79,0,0,0,9.467,2.422,2.79,2.79,0,0,0,6.734,5.267,2.79,2.79,0,0,0,9.467,8.112Zm1.774,5.556a2.6,2.6,0,0,1,0-1.154l-.678-.408.683-1.232.678.408a2.369,2.369,0,0,1,.96-.578V9.89h1.367V10.7a2.367,2.367,0,0,1,.96.578l.678-.408.683,1.232-.678.408a2.6,2.6,0,0,1,0,1.154l.678.408-.683,1.232-.678-.408a2.369,2.369,0,0,1-.96.578v.814H12.885v-.814a2.369,2.369,0,0,1-.96-.578l-.678.408-.683-1.232.678-.407Zm2.327.489a1.068,1.068,0,1,0-1.025-1.067A1.047,1.047,0,0,0,13.568,14.158Z" transform="translate(-0.669 -0.317)" fill="#2e384d"/>
</svg>
