<svg xmlns="http://www.w3.org/2000/svg" width="39.857" height="46" viewBox="0 0 39.857 46">
  <path id="Path_23034" data-name="Path 23034" d="M20.381,27.619v4.1A12.286,12.286,0,0,0,8.1,44H4A16.381,16.381,0,0,1,20.381,27.619Zm0-2.048A12.286,12.286,0,1,1,32.667,13.286,12.282,12.282,0,0,1,20.381,25.571Zm0-4.1a8.19,8.19,0,1,0-8.19-8.19A8.188,8.188,0,0,0,20.381,21.476ZM38.81,33.762h2.048V44H24.476V33.762h2.048V31.714a6.143,6.143,0,0,1,12.286,0Zm-4.1,0V31.714a2.048,2.048,0,1,0-4.1,0v2.048Z" transform="translate(-2.5 0.5)" fill="#4154d5" stroke="#fff" stroke-width="3"/>
</svg>
